<svg width="174" height="57" viewBox="0 0 174 57" fill="none" xmlns="http://www.w3.org/2000/svg">
<rect width="174" height="57" fill="#F3E1E6"/>
<path d="M44.5291 6.74569C44.6186 6.26707 44.7016 5.78513 44.7778 5.29958C44.9596 4.14025 44.9945 2.98906 45 1.82945V0.521799C45 0.959445 45.0021 1.39504 45 1.82945V6.74309C51.1255 6.71225 57.259 6.79477 63.3838 6.83479C63.6507 5.82787 63.9315 4.83308 64.2222 3.85513C65.3029 0.219986 65.6605 3.6024 65.671 6.84746C66.7625 6.85228 67.8537 6.85513 68.9444 6.85513C74.8238 6.85513 80.97 7.67169 87 9.10925V5.74402C87 7.13581 87.1981 8.231 87.6814 9.27446C94.4703 10.9479 101.093 13.4016 107 16.3551C114.051 19.8804 124 23.6141 124 32.8551C124 36.1742 125.254 42.8917 123 45.4107C121.902 46.6379 120.655 46.1447 119.485 44.9218C119.359 46.338 119.043 47.402 118.444 47.744C118.369 47.7874 118.293 47.8244 118.217 47.8551C117.819 48.0173 117.427 48.0067 117.044 47.8551H112.776C112.218 50.203 110.78 49.4038 109.387 47.8551H105.503C104.712 48.9892 103.478 49.2139 101.685 47.8551H97.2216C95.0455 49.4165 93.1449 49.8809 90.7541 49.5205C88.7385 49.7911 86.4796 49.8488 84.0635 49.8546C82.9396 50.4929 81.5023 50.2463 79.6111 48.3551C79.4746 48.2186 79.3384 48.0507 79.2034 47.8551H77.8889C77.8157 47.8551 77.7426 47.8551 77.6694 47.8552C76.9926 48.6322 76.0537 48.8077 74.3925 48.8458C71.4415 51.4985 67.6812 52.3611 64 48.8551C63.6664 48.5375 63.3531 48.2186 63.0589 47.8984C53.5922 47.9023 44.1408 47.7619 34.7778 46.9107C32.8044 46.7313 30.4569 46.4801 27.9381 46.0995C16.6805 44.3982 2 40.1097 2 28.0774C2 16.2952 27.4962 7.10136 37.2222 6.85513C39.6558 6.79352 42.0918 6.76031 44.5291 6.74569Z" fill="#D9D9D9"/>
<path d="M26.6628 48.3554L14.8391 36.6735L9.16095 53.0368L25.6793 51.1896L26.6628 48.3554ZM26.8889 47.4107L28.0278 48.3869L28.0278 48.3869L26.8889 47.4107ZM36.7778 28.6329L35.4025 28.034L35.4025 28.034L36.7778 28.6329ZM44.7778 5.29958L43.2959 5.06713L43.2959 5.06713L44.7778 5.29958ZM51.6111 29.744L51.17 28.3104L51.17 28.3104L51.6111 29.744ZM65.4444 10.8551L63.9892 10.4913L63.9892 10.4913L65.4444 10.8551ZM64.2222 3.85513L65.66 4.28259L65.66 4.28259L64.2222 3.85513ZM61 20.8551L62.4978 20.9361L62.4978 20.9361L61 20.8551ZM64 48.8551L65.0345 47.7689L65.0345 47.7689L64 48.8551ZM79.9444 37.9662L81.4353 38.1319L81.4353 38.1319L79.9444 37.9662ZM66.5556 36.3551L65.6057 35.1942L65.6057 35.1942L66.5556 36.3551ZM79.2222 43.8551L80.675 44.2287L80.675 44.2287L79.2222 43.8551ZM78.2222 31.5218L77.5972 30.1582L77.5972 30.1582L78.2222 31.5218ZM88.0556 41.7996L89.47 42.2988L89.47 42.2988L88.0556 41.7996ZM89 11.2996L90.1579 10.346L90.1579 10.346L89 11.2996ZM86 43.6329L84.5004 43.6695L84.5004 43.6695L86 43.6329ZM86.2222 31.8551L84.8515 31.2459L84.8515 31.2459L86.2222 31.8551ZM99.9444 36.2996L101.438 36.1574L101.438 36.1574L99.9444 36.2996ZM88.7778 49.0774L88.3657 50.5196L88.3657 50.5196L88.7778 49.0774ZM98.2222 47.0774L97.2619 45.925L97.2619 45.925L98.2222 47.0774ZM104.444 27.9107L104.032 29.353L104.032 29.353L104.444 27.9107ZM97 31.4107L98.1149 32.4141L98.1149 32.4141L97 31.4107ZM100.333 46.6329L99.2536 47.6741L99.2536 47.6741L100.333 46.6329ZM104.444 32.0774L103.204 32.9208L103.204 32.9208L104.444 32.0774ZM106.5 43.744L107.791 42.981L107.791 42.9809L106.5 43.744ZM112.944 46.7996L114.437 46.9488L114.437 46.9488L112.944 46.7996ZM111.611 32.6885L110.172 32.2652L110.172 32.2652L111.611 32.6885ZM118.444 47.744L117.7 46.4417L117.7 46.4417L118.444 47.744ZM118.222 33.0774L116.799 33.5517L116.799 33.5517L118.222 33.0774ZM115.222 36.8551L113.737 37.0673L113.737 37.0673L115.222 36.8551ZM123 45.4107L121.882 44.4105L121.882 44.4105L123 45.4107ZM107 16.3551L106.329 17.6968L106.329 17.6968L107 16.3551ZM37.2222 6.85513L37.1843 5.35561L37.1843 5.35561L37.2222 6.85513ZM34.7778 46.9107L34.9136 45.4168L34.9136 45.4168L34.7778 46.9107ZM174 47.8551L159 39.1949V56.5154L174 47.8551ZM25.5894 50.5267C26.4972 49.918 27.3312 49.1996 28.0278 48.3869L25.75 46.4345C25.252 47.0155 24.6299 47.558 23.9186 48.0349L25.5894 50.5267ZM28.0278 48.3869C28.4094 47.9416 28.7793 47.478 29.1382 46.9993L26.7379 45.1997C26.4146 45.6309 26.0854 46.0432 25.75 46.4345L28.0278 48.3869ZM29.1382 46.9993C32.9983 41.8508 35.8034 34.6273 38.153 29.2318L35.4025 28.034C32.9579 33.6476 30.3274 40.4121 26.7379 45.1997L29.1382 46.9993ZM38.153 29.2318C41.281 22.049 44.5141 14.9893 46.0036 7.02131L43.0547 6.47006C41.6408 14.0334 38.5729 20.7538 35.4025 28.034L38.153 29.2318ZM46.0036 7.02132C46.0957 6.52865 46.1812 6.03231 46.2597 5.53203L43.2959 5.06713C43.222 5.53795 43.1415 6.00549 43.0547 6.47006L46.0036 7.02132ZM46.2597 5.53203C46.4596 4.25735 46.4944 3.01428 46.5 1.83656L43.5 1.82233C43.4946 2.96384 43.4597 4.02315 43.2959 5.06713L46.2597 5.53203ZM46.5 1.83656C46.5021 1.398 46.5 0.949387 46.5 0.521799H43.5C43.5 0.969502 43.5021 1.39208 43.5 1.82234L46.5 1.83656ZM43.5 0.521799V1.82945H46.5V0.521799H43.5ZM43.5 1.82945V6.74309H46.5V1.82945H43.5ZM43.5 6.74309V8.29958H46.5V6.74309H43.5ZM43.5 8.29958C43.5 10.525 43.2607 12.6729 43.0093 14.9134C42.7607 17.1301 42.5 19.4397 42.5 21.8551H45.5C45.5 19.6341 45.7393 17.4885 45.9907 15.2478C46.2393 13.0308 46.5 10.7192 46.5 8.29958H43.5ZM42.5 21.8551C42.5 23.97 43.4576 26.5993 45.0028 28.5378C46.5558 30.486 49.0434 32.1035 52.0522 31.1777L51.17 28.3104C49.8327 28.7218 48.5147 28.1305 47.3487 26.6678C46.1749 25.1953 45.5 23.2115 45.5 21.8551H42.5ZM52.0522 31.1777C56.1835 29.9065 59.71 25.9431 62.2642 21.828L59.7152 20.246C57.2514 24.2155 54.2184 27.3724 51.17 28.3104L52.0522 31.1777ZM62.2642 21.828C64.481 18.2564 66.1269 14.3098 66.8997 11.2189L63.9892 10.4913C63.2988 13.2529 61.7837 16.9135 59.7152 20.246L62.2642 21.828ZM66.8997 11.2189C67.0078 10.7865 67.0696 10.0839 67.1089 9.38607C67.151 8.63833 67.1739 7.74355 67.171 6.84259L64.171 6.85234C64.1738 7.70102 64.152 8.53591 64.1136 9.21751C64.0944 9.5587 64.0716 9.85247 64.0469 10.0853C64.0345 10.2015 64.0224 10.2963 64.011 10.3703C64.0054 10.407 64.0004 10.4358 63.9963 10.4576C63.9942 10.4683 63.9925 10.4765 63.9912 10.4825C63.9906 10.4854 63.9901 10.4876 63.9898 10.4891C63.9894 10.4907 63.9892 10.4914 63.9892 10.4913L66.8997 11.2189ZM67.171 6.84259C67.1683 6.00801 67.1433 5.15206 67.0883 4.39139C67.0353 3.6602 66.9484 2.91728 66.7911 2.36229C66.7271 2.13652 66.5846 1.67785 66.2399 1.31527C66.0376 1.10247 65.6751 0.830287 65.1521 0.789336C64.6281 0.748301 64.2246 0.961463 63.9862 1.1456C63.5802 1.45912 63.353 1.91291 63.2288 2.18617C63.0755 2.52348 62.9291 2.94112 62.7844 3.42768L65.66 4.28259C65.7856 3.86035 65.8867 3.58851 65.9599 3.42768C66.0621 3.2028 66.0402 3.34981 65.8199 3.51994C65.6743 3.63238 65.3588 3.8147 64.9179 3.78018C64.4781 3.74574 64.1941 3.51743 64.0657 3.38236C63.8688 3.17525 63.8558 3.0075 63.9048 3.18016C63.9733 3.42201 64.0453 3.90594 64.0961 4.60803C64.1448 5.28064 64.1685 6.06439 64.171 6.85234L67.171 6.84259ZM62.7844 3.42768C62.4897 4.41902 62.2048 5.42826 61.9339 6.45058L64.8338 7.219C65.0965 6.22749 65.3733 5.24713 65.66 4.28259L62.7844 3.42768ZM61.9339 6.45059C60.706 11.0847 59.7596 16.0118 59.5022 20.7742L62.4978 20.9361C62.7407 16.4419 63.6392 11.7272 64.8338 7.219L61.9339 6.45059ZM59.5022 20.7741C59.499 20.8322 59.4958 20.8903 59.4923 20.9484L62.4871 21.1256C62.4908 21.0626 62.4944 20.9994 62.4978 20.9361L59.5022 20.7741ZM59.4923 20.9483C59.3501 23.3498 58.9579 25.6972 58.546 28.0579C58.139 30.3902 57.707 32.7632 57.5337 35.0835C57.1809 39.8095 57.8897 44.4897 61.9544 48.9134L64.1635 46.8835C60.8337 43.2598 60.2121 39.5029 60.5254 35.3068C60.6853 33.1661 61.0854 30.9568 61.5013 28.5736C61.9122 26.219 62.3336 23.7177 62.4871 21.1257L59.4923 20.9483ZM61.9544 48.9134C62.2719 49.2588 62.6087 49.6015 62.9655 49.9413L65.0345 47.7689C64.7242 47.4734 64.4343 47.1783 64.1635 46.8835L61.9544 48.9134ZM62.9655 49.9413C65.0512 51.9277 67.3043 52.7962 69.5623 52.6571C71.774 52.5209 73.7591 51.4321 75.3953 49.9613L73.3897 47.7302C72.0749 48.9122 70.7043 49.5811 69.3778 49.6628C68.0977 49.7417 66.63 49.2885 65.0345 47.7689L62.9655 49.9413ZM75.3953 49.9613C75.7767 49.6184 76.1428 49.2518 76.4925 48.8664L74.2711 46.8502C73.9847 47.1657 73.6904 47.46 73.3897 47.7302L75.3953 49.9613ZM76.4925 48.8664C77.4728 47.7865 78.3352 46.5483 79.0547 45.25L76.4308 43.7958C75.8089 44.9179 75.0772 45.9621 74.2711 46.8502L76.4925 48.8664ZM79.0547 45.25C80.0832 43.3943 80.8421 41.375 81.2279 39.4532L78.2866 38.8627C77.9668 40.4556 77.3232 42.1855 76.4308 43.7958L79.0547 45.25ZM81.2279 39.4532C81.3171 39.0089 81.3869 38.5673 81.4353 38.1319L78.4536 37.8006C78.4156 38.1431 78.3598 38.498 78.2866 38.8627L81.2279 39.4532ZM81.4353 38.1319C81.5606 37.0038 81.5277 35.9874 81.3203 35.0892L78.3972 35.764C78.5099 36.2523 78.5519 36.9157 78.4536 37.8006L81.4353 38.1319ZM81.3203 35.0892C81.0781 34.0398 80.598 33.1591 79.8847 32.4896C79.1773 31.8257 78.3209 31.4446 77.4386 31.257L76.8148 34.1914C77.2759 34.2895 77.6011 34.4607 77.8317 34.6771C78.0564 34.888 78.2706 35.2157 78.3972 35.764L81.3203 35.0892ZM77.4386 31.257C75.4392 30.832 73.0884 31.3513 71.0591 32.1231C68.9878 32.9109 66.9884 34.0629 65.6057 35.1942L67.5054 37.5161C68.6105 36.6119 70.321 35.6135 72.1255 34.9272C73.972 34.2249 75.6628 33.9466 76.8148 34.1914L77.4386 31.257ZM65.6057 35.1942C62.9402 37.3751 62.293 40.3076 62.9832 42.9817C63.6507 45.568 65.5459 47.8818 67.9135 49.1954L69.369 46.5721C67.6573 45.6225 66.3323 43.9535 65.888 42.232C65.4664 40.5984 65.816 38.8983 67.5054 37.5161L65.6057 35.1942ZM67.9135 49.1954C69.2058 49.9124 70.6804 50.3551 72.2222 50.3551V47.3551C71.2575 47.3551 70.2792 47.0772 69.369 46.5721L67.9135 49.1954ZM72.2222 50.3551C73.0439 50.3551 73.788 50.36 74.4269 50.3454L74.3581 47.3462C73.7646 47.3598 73.0775 47.3551 72.2222 47.3551V50.3551ZM74.4269 50.3454C76.0724 50.3076 77.6517 50.1591 78.8005 48.8404L76.5384 46.8699C76.3334 47.1052 76.0349 47.3077 74.3581 47.3462L74.4269 50.3454ZM78.8005 48.8404C79.2589 48.3142 79.5816 47.6773 79.8474 46.9857L77.0472 45.9093C76.8434 46.4394 76.6734 46.7149 76.5384 46.8699L78.8005 48.8404ZM79.8474 46.9857C80.1363 46.2342 80.3958 45.3144 80.675 44.2287L77.7695 43.4816C77.4929 44.5571 77.2691 45.332 77.0472 45.9093L79.8474 46.9857ZM80.675 44.2287C80.8274 43.636 81.1018 41.517 81.2539 39.2587L78.2606 39.0572C78.1863 40.1609 78.0836 41.1985 77.986 42.0103C77.9372 42.4164 77.8903 42.7609 77.8497 43.0255C77.8294 43.1579 77.8114 43.2659 77.7962 43.3489C77.7886 43.3902 77.7822 43.4227 77.7771 43.447C77.7718 43.4726 77.7692 43.4828 77.7695 43.4816L80.675 44.2287ZM81.2539 39.2587C81.3386 37.9996 81.3897 36.6377 81.3583 35.3889L78.3592 35.4644C78.3876 36.5893 78.3418 37.8523 78.2606 39.0572L81.2539 39.2587ZM81.3583 35.3889C81.3264 34.1202 81.2077 32.8092 80.8693 31.8422C80.7066 31.3773 80.414 30.7534 79.8357 30.3377C79.1213 29.8242 78.2899 29.8407 77.5972 30.1582L78.8472 32.8854C78.8224 32.8968 78.7121 32.9413 78.5401 32.9316C78.3564 32.9213 78.197 32.8543 78.0847 32.7737C77.9126 32.6499 77.9446 32.5673 78.0377 32.8332C78.2108 33.3277 78.3283 34.2359 78.3592 35.4644L81.3583 35.3889ZM77.5972 30.1582C76.7041 30.5675 76.1312 31.3169 75.7695 32.0855L78.4839 33.363C78.6586 32.9916 78.8066 32.904 78.8472 32.8854L77.5972 30.1582ZM75.7695 32.0855C75.0063 33.707 74.8932 36.0241 75.0493 38.2269C75.2104 40.4986 75.6813 42.9343 76.3097 44.9662L79.1758 44.0797C78.6138 42.2626 78.1863 40.0531 78.0418 38.0148C77.8924 35.9075 78.0665 34.2498 78.4839 33.363L75.7695 32.0855ZM76.3097 44.9662C76.5406 45.7126 76.7968 46.4177 77.0733 47.0492L79.8213 45.8458C79.5988 45.3377 79.3804 44.7414 79.1758 44.0797L76.3097 44.9662ZM77.0733 47.0492C77.3401 47.6586 77.6383 48.2279 77.9687 48.7069L80.4381 47.0034C80.2504 46.7313 80.04 46.3452 79.8213 45.8458L77.0733 47.0492ZM77.9687 48.7069C78.1417 48.9576 78.3348 49.2001 78.5505 49.4158L80.6718 47.2945C80.6144 47.2371 80.535 47.1438 80.4381 47.0034L77.9687 48.7069ZM78.5505 49.4158C79.5898 50.4551 80.6312 51.1751 81.6987 51.4916C82.8268 51.826 83.8884 51.679 84.8043 51.159L83.3228 48.5503C83.1147 48.6685 82.8957 48.7174 82.5514 48.6153C82.1464 48.4952 81.5236 48.1463 80.6718 47.2945L78.5505 49.4158ZM84.8043 51.159C85.3288 50.8611 85.7681 50.4627 86.1362 50.0343L83.861 48.0791C83.6576 48.3157 83.476 48.4632 83.3228 48.5503L84.8043 51.159ZM86.1362 50.0343C86.5175 49.5906 86.8434 49.0903 87.1251 48.5788L84.4974 47.1314C84.2845 47.518 84.0714 47.8341 83.861 48.0791L86.1362 50.0343ZM87.1251 48.5788C87.7064 47.5236 88.159 46.3098 88.5276 45.2094C88.9294 44.0096 89.177 43.1291 89.47 42.2988L86.6411 41.3003C86.3639 42.0856 86.0036 43.2993 85.6829 44.2566C85.329 45.3132 84.9446 46.3194 84.4974 47.1314L87.1251 48.5788ZM89.47 42.2988C90.6093 39.0708 91.9543 34.1772 92.7008 29.0881L89.7326 28.6527C89.0171 33.5303 87.7228 38.2353 86.6411 41.3003L89.47 42.2988ZM92.7008 29.0881C93.2041 25.6574 93.4437 22.0827 93.1409 18.8432C92.8406 15.6298 91.9907 12.5716 90.1579 10.346L87.8421 12.2531C89.127 13.8134 89.8788 16.1781 90.154 19.1224C90.4267 22.0407 90.2158 25.3585 89.7326 28.6527L92.7008 29.0881ZM90.1579 10.346C89.6407 9.71797 89.2874 9.17284 89.0425 8.64402L86.3203 9.90489C86.7003 10.7253 87.2104 11.4861 87.8421 12.2531L90.1579 10.346ZM89.0425 8.64402C88.674 7.84845 88.5 6.98134 88.5 5.74402H85.5C85.5 7.29029 85.7222 8.61355 86.3203 9.90489L89.0425 8.64402ZM85.5 5.74402V9.10925H88.5V5.74402H85.5ZM85.5 9.10925V15.0774H88.5V9.10925H85.5ZM85.5 15.0774V30.5588H88.5V15.0774H85.5ZM85.5 30.5588V33.2996H88.5V30.5588H85.5ZM85.5 33.2996C85.5 34.2151 85.2803 37.7285 85.0416 40.571C84.922 41.995 84.8038 43.1726 84.7151 43.7394C84.6917 43.8893 84.6796 43.9333 84.6844 43.9164C84.6869 43.9074 84.6956 43.8771 84.712 43.8345C84.7242 43.8026 84.7633 43.7028 84.8406 43.5839C84.8788 43.5253 85.1244 43.1357 85.6558 42.9775C86.4152 42.7513 86.9795 43.1689 87.2025 43.4254C87.3873 43.6377 87.4588 43.8458 87.4747 43.8912C87.5012 43.9673 87.5133 44.0245 87.5172 44.0436C87.5252 44.0834 87.5245 44.0942 87.5206 44.0528C87.5135 43.9771 87.5053 43.833 87.4996 43.5963L84.5004 43.6695C84.5068 43.929 84.517 44.154 84.5337 44.3328C84.5418 44.4188 84.5544 44.5283 84.577 44.6399C84.5882 44.6949 84.6078 44.7813 84.6423 44.88C84.666 44.948 84.7458 45.1721 84.939 45.3943C85.1706 45.6605 85.7436 46.0815 86.5121 45.8527C87.0526 45.6917 87.3075 45.2934 87.3552 45.22C87.5005 44.9968 87.5597 44.7736 87.5721 44.7295C87.6192 44.5621 87.6534 44.3673 87.6791 44.2031C87.787 43.5136 87.9128 42.2305 88.031 40.8221C88.2681 37.9999 88.5 34.3616 88.5 33.2996H85.5ZM87.4996 43.5963C87.4792 42.7613 87.3959 41.7729 87.3105 40.7682C87.2235 39.7449 87.132 38.68 87.0831 37.6238C86.9819 35.4357 87.0883 33.5998 87.5929 32.4643L84.8515 31.2459C84.0286 33.0974 83.9858 35.589 84.0863 37.7624C84.1383 38.8869 84.2354 40.0113 84.3213 41.0223C84.4088 42.052 84.4827 42.9432 84.5004 43.6695L87.4996 43.5963ZM87.5929 32.4643C87.7752 32.0543 87.9683 31.7448 88.1622 31.5072L85.8378 29.6105C85.4518 30.0835 85.1258 30.6289 84.8515 31.2459L87.5929 32.4643ZM88.1622 31.5072C88.7843 30.7448 89.656 30.4345 91.2771 30.3692L91.1563 27.3716C89.2508 27.4484 87.283 27.8395 85.8378 29.6105L88.1622 31.5072ZM91.2771 30.3692C91.5236 30.3592 91.7824 30.3551 92.0556 30.3551V27.3551C91.7534 27.3551 91.4529 27.3596 91.1563 27.3716L91.2771 30.3692ZM92.0556 30.3551C94.5171 30.3551 95.8935 30.8597 96.7346 31.6542L98.7947 29.4733C97.1484 27.9183 94.855 27.3551 92.0556 27.3551V30.3551ZM96.7346 31.6542C97.6112 32.4822 98.2099 33.9085 98.4512 36.4418L101.438 36.1574C101.172 33.371 100.464 31.05 98.7947 29.4733L96.7346 31.6542ZM98.4512 36.4418C98.8045 40.1512 98.3764 42.5826 97.5281 44.2L100.185 45.5934C101.411 43.2547 101.819 40.1606 101.438 36.1574L98.4512 36.4418ZM97.5281 44.2C96.9834 45.2386 96.2363 45.9996 95.2942 46.575L96.8577 49.1353C98.2368 48.2931 99.3741 47.1393 100.185 45.5934L97.5281 44.2ZM95.2942 46.575C94.0841 47.3139 92.5099 47.7715 90.5546 48.0339L90.9536 51.0072C93.1145 50.7172 95.1493 50.1787 96.8577 49.1353L95.2942 46.575ZM90.5546 48.0339C88.6431 48.2904 86.4678 48.3488 84.0599 48.3546L84.0671 51.3546C86.4914 51.3488 88.8339 51.2917 90.9536 51.0072L90.5546 48.0339ZM84.0599 48.3546C83.9111 48.355 83.7615 48.3551 83.6111 48.3551V51.3551C83.7636 51.3551 83.9156 51.355 84.0671 51.3546L84.0599 48.3546ZM83.6111 48.3551C83.2565 48.3551 82.9967 48.347 82.8148 48.3347C82.6082 48.3208 82.5753 48.3058 82.6298 48.3209C82.6339 48.3221 82.8315 48.3703 83.0485 48.54C83.1691 48.6344 83.3657 48.8208 83.4914 49.1274C83.6307 49.467 83.6302 49.8272 83.5276 50.1389C83.3635 50.6375 82.9954 50.8576 82.9759 50.8702C82.9273 50.9019 82.8894 50.9213 82.871 50.9303C82.8512 50.94 82.8394 50.9447 82.8385 50.945C82.8382 50.9452 82.8572 50.9378 82.902 50.9243C82.9449 50.9115 83.0015 50.896 83.073 50.8785C83.2165 50.8432 83.3995 50.8046 83.6168 50.765C84.0513 50.6858 84.588 50.6089 85.1573 50.5483L84.8399 47.5651C84.2079 47.6324 83.5968 47.7192 83.0787 47.8137C82.5974 47.9014 82.0886 48.0143 81.727 48.1586C81.6314 48.1967 81.4875 48.2595 81.3398 48.3557C81.2596 48.4079 80.8541 48.6661 80.678 49.2009C80.5694 49.5308 80.5694 49.9087 80.7157 50.2655C80.8484 50.5892 81.0587 50.7924 81.2 50.9029C81.4582 51.1049 81.7248 51.1832 81.8277 51.2117C82.2552 51.3303 82.8995 51.3551 83.6111 51.3551V48.3551ZM85.1573 50.5483C85.834 50.4763 86.5318 50.43 87.1381 50.4265C87.7835 50.4229 88.1922 50.4701 88.3657 50.5196L89.1899 47.6351C88.583 47.4617 87.8143 47.4227 87.1212 47.4266C86.389 47.4307 85.5874 47.4856 84.8399 47.5651L85.1573 50.5483ZM88.3657 50.5196C89.1129 50.7331 89.8315 50.8984 90.5305 51.0038L90.9777 48.0373C90.4343 47.9554 89.8443 47.822 89.1899 47.6351L88.3657 50.5196ZM90.5305 51.0038C93.3348 51.4265 95.6253 50.8467 98.096 49.0739L96.3471 46.6364C94.4657 47.9863 92.955 48.3354 90.9777 48.0373L90.5305 51.0038ZM98.096 49.0739C98.4556 48.8159 98.8169 48.5343 99.1825 48.2297L97.2619 45.925C96.9446 46.1895 96.6405 46.4259 96.3471 46.6364L98.096 49.0739ZM99.1825 48.2297C99.5938 47.8869 100.057 47.5526 100.566 47.2068L98.8806 44.7251C98.3349 45.0958 97.781 45.4925 97.2619 45.925L99.1825 48.2297ZM100.566 47.2068C101.484 46.5837 102.666 45.8534 103.669 45.0965C104.705 44.3151 105.741 43.3727 106.475 42.1528L103.904 40.6065C103.455 41.3531 102.762 42.0224 101.862 42.7018C100.929 43.4057 99.9698 43.9853 98.8806 44.7251L100.566 47.2068ZM106.475 42.1528C107.115 41.0897 107.5 39.8553 107.5 38.4107H104.5C104.5 39.2884 104.275 39.9911 103.904 40.6065L106.475 42.1528ZM107.5 38.4107C107.5 38.123 107.539 37.6172 107.597 36.8695L104.606 36.6378C104.554 37.3137 104.5 37.9747 104.5 38.4107H107.5ZM107.597 36.8695C107.711 35.403 107.877 33.2278 107.703 31.3232C107.617 30.3751 107.439 29.3811 107.062 28.5361C106.681 27.6818 106.007 26.797 104.857 26.4684L104.032 29.353C104.041 29.3555 104.062 29.3606 104.104 29.4039C104.155 29.4558 104.234 29.5618 104.322 29.7582C104.504 30.1669 104.642 30.7851 104.716 31.5949C104.862 33.2059 104.723 35.1285 104.606 36.6378L107.597 36.8695ZM104.857 26.4684C102.969 25.9292 101.369 26.114 99.9602 26.8147C98.6332 27.4748 97.5753 28.5497 96.6585 29.5506L98.8708 31.5769C99.7804 30.5838 100.514 29.8898 101.296 29.5007C101.997 29.1522 102.823 29.0075 104.032 29.353L104.857 26.4684ZM96.6585 29.5506C96.4003 29.8325 96.1384 30.1257 95.8851 30.4072L98.1149 32.4141C98.379 32.1208 98.6244 31.8459 98.8708 31.5769L96.6585 29.5506ZM95.8851 30.4072C93.713 32.8207 93.482 35.8128 94.0945 38.5309C94.7016 41.2252 96.1616 43.8229 97.6607 45.8023L100.052 43.9911C98.7149 42.2253 97.5043 40.0159 97.0211 37.8715C96.5433 35.7509 96.8023 33.8726 98.1149 32.4141L95.8851 30.4072ZM97.6607 45.8023C97.9682 46.2084 98.2805 46.5925 98.5915 46.9502L100.855 44.9817C100.589 44.6759 100.32 44.3444 100.052 43.9911L97.6607 45.8023ZM98.5915 46.9502C98.8129 47.2048 99.0343 47.4467 99.2536 47.6741L101.413 45.5917C101.231 45.403 101.044 45.1992 100.855 44.9817L98.5915 46.9502ZM99.2536 47.6741C99.777 48.2169 100.285 48.6762 100.779 49.0506L102.591 46.6597C102.246 46.3983 101.854 46.0486 101.413 45.5917L99.2536 47.6741ZM100.779 49.0506C101.806 49.8291 102.906 50.3387 104.036 50.2885C105.251 50.2345 106.146 49.5563 106.734 48.7129L104.272 46.9974C104.07 47.288 103.952 47.2893 103.903 47.2914C103.77 47.2973 103.356 47.24 102.591 46.6597L100.779 49.0506ZM106.734 48.7129C107.581 47.497 107.95 45.7409 108.088 44.0195L105.097 43.7806C104.971 45.3687 104.649 46.4577 104.272 46.9974L106.734 48.7129ZM108.088 44.0195C108.278 41.6419 108.057 38.8682 107.572 36.458L104.631 37.0494C105.071 39.2351 105.262 41.7262 105.097 43.7806L108.088 44.0195ZM107.572 36.458C107.168 34.4479 106.543 32.4955 105.685 31.2339L103.204 32.9208C103.718 33.6765 104.249 35.1498 104.631 37.0494L107.572 36.458ZM105.685 31.2339C105.371 30.7726 104.962 30.2513 104.435 29.9606C104.135 29.7951 103.667 29.635 103.121 29.761C102.571 29.8879 102.224 30.2395 102.034 30.517C101.706 30.9946 101.611 31.5817 101.568 31.9344C101.515 32.3589 101.5 32.836 101.5 33.2996H104.5C104.5 32.8842 104.515 32.5478 104.545 32.3018C104.56 32.1796 104.576 32.1077 104.585 32.0747C104.598 32.0295 104.586 32.1004 104.508 32.2138C104.423 32.3378 104.2 32.5909 103.795 32.6843C103.395 32.7766 103.095 32.6478 102.987 32.588C102.886 32.5325 102.869 32.4954 102.933 32.5657C102.99 32.627 103.08 32.7381 103.204 32.9208L105.685 31.2339ZM101.5 33.2996C101.5 36.5651 102.506 39.4155 103.853 42.0604L106.526 40.699C105.3 38.2906 104.5 35.9205 104.5 33.2996H101.5ZM103.853 42.0604C104.276 42.8908 104.735 43.705 105.209 44.5071L107.791 42.9809C107.338 42.213 106.912 41.4562 106.526 40.699L103.853 42.0604ZM105.209 44.5071C105.239 44.5585 105.271 44.6125 105.305 44.669L107.881 43.131C107.849 43.0784 107.819 43.0283 107.791 42.981L105.209 44.5071ZM105.305 44.6691C105.887 45.6445 107.044 47.4916 108.272 48.8579L110.503 46.8523C109.483 45.7181 108.452 44.0874 107.881 43.131L105.305 44.6691ZM108.272 48.8579C108.656 49.2857 109.079 49.7016 109.522 50.0361C109.946 50.3559 110.503 50.6892 111.149 50.7962C111.887 50.9184 112.656 50.7254 113.258 50.1332C113.784 49.6169 114.067 48.9096 114.235 48.202L111.317 47.5082C111.206 47.9746 111.1 48.0479 111.155 47.9937C111.197 47.9528 111.278 47.8932 111.397 47.8579C111.511 47.8237 111.601 47.8301 111.639 47.8365C111.682 47.8436 111.584 47.8335 111.329 47.6413C111.094 47.4637 110.814 47.1989 110.503 46.8523L108.272 48.8579ZM114.235 48.202C114.325 47.8239 114.391 47.4057 114.437 46.9488L111.452 46.6503C111.416 47.0059 111.369 47.2881 111.317 47.5082L114.235 48.202ZM114.437 46.9488C114.632 45.0001 114.632 43.0282 114.594 41.1168L111.594 41.1767C111.632 43.061 111.628 44.8866 111.452 46.6503L114.437 46.9488ZM114.594 41.1168C114.56 39.4535 114.5 37.8782 114.5 36.2996H111.5C111.5 37.9148 111.563 39.5891 111.594 41.1767L114.594 41.1168ZM114.5 36.2996C114.5 35.8948 114.322 34.2374 114.054 33.013C113.985 32.6952 113.902 32.3672 113.801 32.075C113.722 31.8455 113.56 31.41 113.242 31.0697C113.069 30.8851 112.695 30.5633 112.117 30.5258C111.499 30.4856 111.056 30.7934 110.823 31.0275C110.442 31.4119 110.267 31.9419 110.172 32.2652L113.05 33.1117C113.144 32.7929 113.155 32.9375 112.952 33.1414C112.809 33.2854 112.455 33.554 111.923 33.5195C111.431 33.4876 111.142 33.2161 111.052 33.12C110.899 32.9566 110.895 32.8506 110.964 33.0512C111.012 33.189 111.066 33.3916 111.123 33.6528C111.236 34.1707 111.333 34.7976 111.401 35.3394C111.435 35.6071 111.461 35.8453 111.478 36.0279C111.497 36.236 111.5 36.3144 111.5 36.2996H114.5ZM110.172 32.2652C110.019 32.7847 110.031 33.4476 110.067 34.0005C110.108 34.6223 110.203 35.3645 110.339 36.1688C110.613 37.7795 111.07 39.7238 111.664 41.5995L114.524 40.694C113.973 38.9521 113.548 37.1424 113.297 35.6659C113.171 34.9266 113.093 34.2919 113.061 33.804C113.024 33.2471 113.063 33.0674 113.05 33.1117L110.172 32.2652ZM111.664 41.5995C112.179 43.2253 112.813 44.8516 113.548 46.1781C114.235 47.4183 115.189 48.7339 116.491 49.2498L117.596 46.4605C117.344 46.3605 116.821 45.8968 116.172 44.7242C115.57 43.6379 115.006 42.2179 114.524 40.694L111.664 41.5995ZM116.491 49.2498C117.21 49.5344 118.004 49.5616 118.783 49.2444L117.652 46.4659C117.637 46.4716 117.63 46.473 117.63 46.4731C117.63 46.4732 117.632 46.4728 117.635 46.4728C117.638 46.4729 117.637 46.4732 117.633 46.4722C117.628 46.4712 117.616 46.4683 117.596 46.4605L116.491 49.2498ZM118.783 49.2444C118.923 49.1874 119.058 49.1209 119.189 49.0464L117.7 46.4417C117.679 46.4539 117.663 46.4614 117.652 46.4659L118.783 49.2444ZM119.189 49.0464C119.957 48.6074 120.345 47.8396 120.558 47.23C120.785 46.5802 120.911 45.8235 120.979 45.0551L117.991 44.7885C117.933 45.4362 117.838 45.9197 117.726 46.2414C117.599 46.6034 117.531 46.5386 117.7 46.4417L119.189 49.0464ZM120.979 45.0551C121.162 43.0014 120.977 40.3531 120.688 38.0501C120.4 35.7623 119.986 33.6262 119.645 32.603L116.799 33.5517C117.043 34.2816 117.429 36.1745 117.711 38.4239C117.992 40.6582 118.146 43.0555 117.991 44.7885L120.979 45.0551ZM119.645 32.603C119.269 31.4738 118.914 30.5578 118.577 29.8384C118.251 29.1422 117.901 28.537 117.503 28.1041C117.155 27.7263 116.354 27.0559 115.293 27.4045C114.411 27.6944 114.045 28.5076 113.902 28.8827C113.554 29.7939 113.43 31.1313 113.417 32.4761C113.404 33.8792 113.512 35.4923 113.737 37.0673L116.707 36.643C116.502 35.2064 116.405 33.745 116.417 32.5044C116.429 31.2055 116.56 30.3301 116.704 29.9533C116.807 29.6843 116.746 30.0847 116.229 30.2546C115.534 30.4832 115.157 29.9858 115.295 30.1356C115.382 30.2303 115.578 30.5073 115.86 31.1097C116.131 31.6889 116.445 32.4879 116.799 33.5517L119.645 32.603ZM113.737 37.0673C113.794 37.4635 113.999 38.0757 114.225 38.6727C114.472 39.3271 114.81 40.1311 115.215 40.9798C116.007 42.6399 117.126 44.6249 118.401 45.9585L120.569 43.8851C119.633 42.9065 118.68 41.2749 117.923 39.6881C117.553 38.9134 117.248 38.1863 117.031 37.6114C116.922 37.3235 116.838 37.0821 116.78 36.8978C116.715 36.6894 116.704 36.6192 116.707 36.643L113.737 37.0673ZM118.401 45.9585C119.061 46.6488 119.926 47.3397 120.966 47.5542C122.163 47.801 123.269 47.3592 124.118 46.4109L121.882 44.4105C121.735 44.5754 121.646 44.6119 121.631 44.6174C121.626 44.6193 121.618 44.6254 121.572 44.616C121.422 44.585 121.079 44.4177 120.569 43.8851L118.401 45.9585ZM124.118 46.4109C124.938 45.4939 125.356 44.299 125.58 43.1365C125.807 41.9575 125.862 40.6632 125.845 39.4132C125.829 38.1581 125.739 36.8865 125.657 35.7545C125.573 34.5949 125.5 33.6175 125.5 32.8551H122.5C122.5 33.7523 122.584 34.8592 122.665 35.9714C122.747 37.1111 122.83 38.2987 122.845 39.4527C122.861 40.6118 122.806 41.6767 122.634 42.5694C122.459 43.4786 122.189 44.068 121.882 44.4105L124.118 46.4109ZM125.5 32.8551C125.5 27.5878 122.624 23.95 119.045 21.2622C115.532 18.6253 111.074 16.7153 107.671 15.0135L106.329 17.6968C109.976 19.5202 114.018 21.2397 117.243 23.6613C120.401 26.0319 122.5 28.8814 122.5 32.8551H125.5ZM107.671 15.0135C101.664 12.0099 94.9363 9.51789 88.0404 7.81805L87.3224 10.7309C94.0043 12.378 100.522 14.7933 106.329 17.6968L107.671 15.0135ZM88.0404 7.81805C87.8098 7.76119 87.5789 7.70522 87.3479 7.65014L86.6521 10.5684C86.8757 10.6217 87.0991 10.6758 87.3224 10.7309L88.0404 7.81805ZM87.3479 7.65014C81.2226 6.18987 74.9587 5.35513 68.9444 5.35513V8.35513C74.6889 8.35513 80.7174 9.15351 86.6521 10.5684L87.3479 7.65014ZM68.9444 5.35513C67.8563 5.35513 66.7674 5.35229 65.6776 5.34748L65.6644 8.34745C66.7577 8.35228 67.8511 8.35513 68.9444 8.35513V5.35513ZM65.6776 5.34748C64.9167 5.34412 64.1553 5.3398 63.3936 5.33482L63.374 8.33476C64.1374 8.33975 64.9009 8.34408 65.6644 8.34745L65.6776 5.34748ZM63.3936 5.33482C57.2827 5.29489 51.1295 5.21221 44.9924 5.24311L45.0076 8.24307C51.1216 8.21229 57.2353 8.29465 63.374 8.33476L63.3936 5.33482ZM44.9924 5.24311C44.835 5.2439 44.6776 5.24477 44.5201 5.24572L44.5381 8.24566C44.6946 8.24472 44.8511 8.24386 45.0076 8.24307L44.9924 5.24311ZM44.5201 5.24572C42.0753 5.26039 39.6294 5.29371 37.1843 5.35561L37.2602 8.35465C39.6822 8.29333 42.1083 8.26024 44.5381 8.24566L44.5201 5.24572ZM37.1843 5.35561C32.0345 5.48599 23.0094 7.9332 15.292 11.7991C11.4176 13.74 7.77501 16.0856 5.0792 18.7607C2.3956 21.4236 0.5 24.5682 0.5 28.0774H3.5C3.5 25.6955 4.79142 23.2725 7.19229 20.8902C9.58095 18.5199 12.9202 16.3426 16.6357 14.4814C24.0978 10.7433 32.6838 8.47051 37.2602 8.35465L37.1843 5.35561ZM0.5 28.0774C0.5 34.8486 4.68307 39.343 10.0253 42.2773C15.3376 45.1952 22.0326 46.724 27.7139 47.5826L28.1622 44.6163C22.586 43.7736 16.3119 42.3076 11.4696 39.6478C6.65718 37.0045 3.5 33.3385 3.5 28.0774H0.5ZM27.7139 47.5826C30.2715 47.9692 32.6504 48.2235 34.642 48.4045L34.9136 45.4168C32.9585 45.2391 30.6424 44.9911 28.1622 44.6163L27.7139 47.5826ZM34.642 48.4045C44.0757 49.2621 53.5828 49.4023 63.0595 49.3984L63.0583 46.3984C53.6015 46.4023 44.206 46.2616 34.9136 45.4168L34.642 48.4045ZM63.0595 49.3984C64.9227 49.3977 66.7859 49.3914 68.6474 49.3838L68.6351 46.3838C66.7746 46.3914 64.9159 46.3977 63.0583 46.3984L63.0595 49.3984ZM68.6474 49.3838C70.8962 49.3746 73.1408 49.3636 75.3854 49.3583L75.3783 46.3583C73.1303 46.3636 70.8806 46.3746 68.6351 46.3838L68.6474 49.3838ZM75.3854 49.3583C76.1472 49.3565 76.9086 49.3553 77.6698 49.3552L77.6691 46.3552C76.9054 46.3553 76.1418 46.3565 75.3783 46.3583L75.3854 49.3583ZM77.6698 49.3552C77.7428 49.3551 77.8158 49.3551 77.8889 49.3551V46.3551C77.8156 46.3551 77.7423 46.3551 77.669 46.3552L77.6698 49.3552ZM77.8889 49.3551H79.2034V46.3551H77.8889V49.3551ZM79.2034 49.3551H85.8113V46.3551H79.2034V49.3551ZM85.8113 49.3551H96.076V46.3551H85.8113V49.3551ZM96.076 49.3551H97.2216V46.3551H96.076V49.3551ZM97.2216 49.3551H101.685V46.3551H97.2216V49.3551ZM101.685 49.3551H105.503V46.3551H101.685V49.3551ZM105.503 49.3551H109.387V46.3551H105.503V49.3551ZM109.387 49.3551H112.776V46.3551H109.387V49.3551ZM112.776 49.3551H117.044V46.3551H112.776V49.3551ZM117.044 49.3551H118.217V46.3551H117.044V49.3551ZM118.217 49.3551H160.5V46.3551H118.217V49.3551Z" fill="black"/>
</svg>
