<svg width="111" height="45" viewBox="0 0 111 45" fill="none" xmlns="http://www.w3.org/2000/svg">
<rect width="111" height="45" fill="#F3E1E6"/>
<path d="M16 20C19.0514 23.8142 18.7611 28.8938 23.5 31C24.4787 31.435 28.4552 37.7303 29.5556 36.8889C32.0423 34.9873 30 20.7347 30 17.1111C30 13.8094 29.2069 10.7255 28.9444 7.44444C28.8272 5.97896 26.8653 -3.28832 30 2.88889C33.5049 9.79553 35.3869 17.2493 39.4445 23.8889C42.4449 28.7987 43.825 19.8437 44.5556 17.2222C45.4309 14.0814 45 -4.53542 45 7.94444C45 16.9027 46.0613 26.1646 50.5 34.0556C51.2995 35.4769 53.197 42.9622 55.7778 39.5556C58.5069 35.9531 57.0416 32.2917 58.5 28.5C59.3631 26.2558 59.4168 19.1118 60 21.4444C61.32 26.7243 59.7541 30.1971 62.4445 35.3333C64.7562 39.7466 63.8673 27.4431 65.6111 27.0556C68.8513 26.3355 71 32.3216 71 28.4444C71 26.4918 68.9725 21.115 70.6111 25.6667C70.9826 26.6986 73.6176 33.2594 75 33.7778C76.2762 34.2564 76 22.6857 76 21.2222C76 17.1889 77.0878 29.3932 79 32.9444C82.2869 39.0487 80.4945 26.0402 79 23.6667C76.218 19.2482 79.8983 30.5844 81.3889 32.3889C84.4255 36.0648 83 31.257 83 28.5C83 26.229 89.4367 34.5235 91 36C95.401 40.1565 97 30.1476 97 27.3889C97 21.8251 94.6732 17.5882 90 14.4444C83.2658 9.91416 73.746 9.0881 66.0556 8.16667C52.5361 6.54682 38.698 5.77202 25.1111 7.11111C18.4731 7.76534 9.85203 8.86418 4.44445 13.3889C-6.98614 22.9533 15.171 37.6212 22 40.5556C28.6379 43.4078 36.1509 43.1664 43.2222 43.5C54.6482 44.039 66.0646 44 77.5 44C88.3333 44 99.1667 44 110 44" stroke="black" stroke-linecap="round"/>
</svg>
